<svg width="92" height="42" viewBox="0 0 92 42" fill="none" xmlns="http://www.w3.org/2000/svg">
<rect x="0.5" y="0.5" width="91" height="41" rx="6.5" fill="white"/>
<rect x="0.5" y="0.5" width="91" height="41" rx="6.5" stroke="#C9D1D7"/>
<g clip-path="url(#clip0_2336_4175)">
<path d="M47.0242 22.6088H44.3822V11.7761H46.956V13.2219C47.6405 12.0967 48.897 11.4242 50.2361 11.4645C52.9462 11.4645 54.245 13.3782 54.245 15.7577V22.6098H51.603V16.2033C51.603 14.8694 50.9877 13.8007 49.3255 13.8007C47.8212 13.8007 47.0252 14.935 47.0252 16.3586V22.6088H47.0242Z" fill="#8B4AFF"/>
<path d="M72.3516 22.9203C69.7096 22.9203 68.1599 21.0067 68.1599 18.605V11.7751H70.8019V18.1372C70.8019 19.4711 71.4399 20.6064 73.034 20.6064C74.628 20.6064 75.358 19.6062 75.358 18.1815V11.7751H77.9999V20.6276C77.9999 21.5168 77.9545 22.2075 77.9999 22.6078H75.4942C75.4715 22.2075 75.4715 21.8062 75.4942 21.4069C74.9481 22.386 73.6493 22.9193 72.3505 22.9193" fill="#8B4AFF"/>
<path d="M26.7463 11.4636C25.272 11.3829 23.8782 12.124 23.1473 13.3772C22.5351 12.1421 21.2239 11.3879 19.8218 11.4636C18.5014 11.4293 17.2583 12.0705 16.5418 13.1544V11.7761H14L14.0134 22.6088H16.6347V16.1802C16.6347 14.8009 17.5237 13.7775 18.935 13.7775C20.4392 13.7775 21.0762 14.7565 21.0762 16.0017V22.6088H23.6707V16.1802C23.5861 14.939 24.5462 13.8662 25.8171 13.7825C25.8688 13.7795 25.9193 13.7775 25.971 13.7775C27.4515 13.7775 28.1122 14.7333 28.1122 16.0017V22.6088H30.6633V15.5772C30.6633 12.7077 28.7503 11.4625 26.7453 11.4625" fill="#8B4AFF"/>
<path d="M66.5825 7L63.894 7.85803V13.0435C63.5523 12.3538 62.5736 11.4867 60.6367 11.4867C57.5136 11.4867 55.3528 14.0447 55.3528 17.1572C55.3528 20.4269 57.494 22.876 60.6822 22.876C61.9964 22.9335 63.2405 22.2962 63.9384 21.2073V22.6088H66.5804C66.5577 22.4313 66.5804 21.6086 66.5804 20.6286V7H66.5825ZM60.9795 20.6064C59.18 20.6064 57.9958 19.2271 57.9958 17.1582C57.9958 15.0892 59.2719 13.7745 61.0022 13.7745C62.7326 13.7745 63.9178 15.065 63.9178 17.134C63.9178 19.2029 62.7109 20.6044 60.9795 20.6044" fill="#8B4AFF"/>
<path d="M37.5268 11.5009C34.2241 11.5009 31.7876 13.9257 31.7876 17.2398C31.7876 20.554 34.2252 23.001 37.5268 23.001C40.8285 23.001 43.2898 20.5762 43.2898 17.2398C43.2898 13.9035 40.8523 11.5009 37.5268 11.5009ZM40.3794 18.3217C40.3691 18.852 40.0119 19.3158 39.4926 19.4731L34.8405 20.9603C34.7827 20.9785 34.7207 20.9472 34.7021 20.8907C34.699 20.8796 34.697 20.8686 34.697 20.8575V16.1771C34.7063 15.6468 35.0645 15.182 35.5838 15.0257L40.237 13.5406C40.2948 13.5224 40.3567 13.5537 40.3753 13.6101C40.3784 13.6212 40.3805 13.6323 40.3805 13.6434V18.3227L40.3794 18.3217Z" fill="#8B4AFF"/>
</g>
<path d="M22.8274 28.9091V34H22.0593V28.9091H22.8274ZM28.405 28.9091V34H27.6991L25.1114 30.2663H25.0641V34H24.296V28.9091H25.007L27.5972 32.6477H27.6444V28.9091H28.405ZM32.6521 30.2464C32.6256 30.0111 32.5163 29.8288 32.324 29.6996C32.1318 29.5687 31.8898 29.5032 31.5982 29.5032C31.3894 29.5032 31.2087 29.5363 31.0563 29.6026C30.9038 29.6673 30.7853 29.7567 30.7008 29.8711C30.6179 29.9838 30.5765 30.1122 30.5765 30.2564C30.5765 30.3774 30.6047 30.4818 30.661 30.5696C30.719 30.6574 30.7944 30.7312 30.8872 30.7908C30.9817 30.8488 31.0828 30.8977 31.1905 30.9375C31.2982 30.9756 31.4018 31.0071 31.5012 31.032L31.9984 31.1612C32.1608 31.201 32.3273 31.2549 32.498 31.3228C32.6687 31.3907 32.827 31.4802 32.9728 31.5913C33.1186 31.7023 33.2363 31.8398 33.3258 32.0039C33.4169 32.168 33.4625 32.3643 33.4625 32.593C33.4625 32.8814 33.3879 33.1374 33.2388 33.3612C33.0913 33.5849 32.8767 33.7614 32.595 33.8906C32.3149 34.0199 31.976 34.0845 31.5783 34.0845C31.1971 34.0845 30.8673 34.024 30.5889 33.9031C30.3105 33.7821 30.0926 33.6106 29.9352 33.3885C29.7777 33.1648 29.6907 32.8996 29.6742 32.593H30.4448C30.4597 32.777 30.5193 32.9303 30.6237 33.0529C30.7298 33.1739 30.8649 33.2642 31.0289 33.3239C31.1946 33.3819 31.3761 33.4109 31.5733 33.4109C31.7904 33.4109 31.9835 33.3769 32.1525 33.3089C32.3232 33.2393 32.4574 33.1432 32.5552 33.0206C32.653 32.8963 32.7019 32.7513 32.7019 32.5856C32.7019 32.4348 32.6588 32.3113 32.5726 32.2152C32.4881 32.1191 32.3729 32.0395 32.2271 31.9766C32.0829 31.9136 31.9197 31.8581 31.7374 31.81L31.1358 31.646C30.7281 31.5349 30.405 31.3717 30.1664 31.1562C29.9294 30.9408 29.8109 30.6558 29.8109 30.3011C29.8109 30.0078 29.8904 29.7518 30.0495 29.533C30.2086 29.3143 30.424 29.1444 30.6958 29.0234C30.9676 28.9008 31.2742 28.8395 31.6156 28.8395C31.9603 28.8395 32.2644 28.9 32.5279 29.021C32.793 29.1419 33.0018 29.3085 33.1543 29.5206C33.3067 29.7311 33.3863 29.973 33.3929 30.2464H32.6521ZM34.4793 29.5703V28.9091H38.4193V29.5703H36.8309V34H36.0653V29.5703H34.4793ZM39.4684 34H38.6531L40.4851 28.9091H41.3726L43.2046 34H42.3893L40.95 29.8338H40.9102L39.4684 34ZM39.6052 32.0064H42.2501V32.6527H39.6052V32.0064ZM48.3988 28.9091V34H47.6928L45.1051 30.2663H45.0579V34H44.2898V28.9091H45.0007L47.5909 32.6477H47.6381V28.9091H48.3988ZM49.6182 29.5703V28.9091H53.5582V29.5703H51.9698V34H51.2041V29.5703H49.6182ZM56.9814 34V28.9091H58.796C59.1921 28.9091 59.5202 28.9812 59.7804 29.1254C60.0406 29.2695 60.2353 29.4667 60.3645 29.717C60.4938 29.9656 60.5584 30.2456 60.5584 30.5572C60.5584 30.8704 60.493 31.1521 60.3621 31.4023C60.2328 31.6509 60.0372 31.8481 59.7754 31.994C59.5152 32.1381 59.1879 32.2102 58.7935 32.2102H57.5456V31.5589H58.7239C58.9742 31.5589 59.1772 31.5159 59.3329 31.4297C59.4887 31.3419 59.6031 31.2225 59.676 31.0717C59.7489 30.9209 59.7854 30.7494 59.7854 30.5572C59.7854 30.3649 59.7489 30.1942 59.676 30.0451C59.6031 29.896 59.4879 29.7791 59.3305 29.6946C59.1747 29.6101 58.9692 29.5678 58.714 29.5678H57.7495V34H56.9814ZM61.6989 34H60.8836L62.7156 28.9091H63.603L65.4351 34H64.6197L63.1805 29.8338H63.1407L61.6989 34ZM61.8356 32.0064H64.4805V32.6527H61.8356V32.0064ZM65.608 28.9091H66.4805L67.8104 31.2234H67.8651L69.195 28.9091H70.0675L68.2205 32.0014V34H67.4549V32.0014L65.608 28.9091Z" fill="#55687D"/>
<defs>
<clipPath id="clip0_2336_4175">
<rect width="64" height="16" fill="white" transform="translate(14 7)"/>
</clipPath>
</defs>
</svg>
