<svg width="92" height="42" viewBox="0 0 92 42" fill="none" xmlns="http://www.w3.org/2000/svg">
<rect x="0.5" y="0.5" width="91" height="41" rx="6.5" fill="white"/>
<rect x="0.5" y="0.5" width="91" height="41" rx="6.5" stroke="#C9D1D7"/>
<g clip-path="url(#clip0_2336_4099)">
<path d="M47.0242 22.6088H44.3822V11.7761H46.956V13.2219C47.6405 12.0967 48.897 11.4242 50.2361 11.4645C52.9462 11.4645 54.245 13.3782 54.245 15.7577V22.6098H51.603V16.2033C51.603 14.8694 50.9877 13.8007 49.3255 13.8007C47.8212 13.8007 47.0252 14.935 47.0252 16.3586V22.6088H47.0242Z" fill="#8B4AFF"/>
<path d="M72.3516 22.9203C69.7096 22.9203 68.16 21.0067 68.16 18.605V11.7751H70.8019V18.1372C70.8019 19.4711 71.44 20.6064 73.034 20.6064C74.6281 20.6064 75.358 19.6062 75.358 18.1815V11.7751H78V20.6276C78 21.5168 77.9546 22.2075 78 22.6078H75.4943C75.4716 22.2075 75.4716 21.8062 75.4943 21.4069C74.9482 22.386 73.6494 22.9193 72.3506 22.9193" fill="#8B4AFF"/>
<path d="M26.7463 11.4636C25.272 11.3829 23.8782 12.124 23.1473 13.3772C22.5351 12.1421 21.2239 11.3879 19.8218 11.4636C18.5014 11.4293 17.2583 12.0705 16.5418 13.1544V11.7761H14L14.0134 22.6088H16.6347V16.1802C16.6347 14.8009 17.5237 13.7775 18.935 13.7775C20.4392 13.7775 21.0762 14.7565 21.0762 16.0017V22.6088H23.6707V16.1802C23.5861 14.939 24.5462 13.8662 25.8171 13.7825C25.8688 13.7795 25.9193 13.7775 25.971 13.7775C27.4515 13.7775 28.1122 14.7333 28.1122 16.0017V22.6088H30.6633V15.5772C30.6633 12.7077 28.7503 11.4625 26.7453 11.4625" fill="#8B4AFF"/>
<path d="M66.5824 7L63.894 7.85803V13.0435C63.5522 12.3538 62.5735 11.4867 60.6367 11.4867C57.5136 11.4867 55.3527 14.0447 55.3527 17.1572C55.3527 20.4269 57.494 22.876 60.6821 22.876C61.9964 22.9335 63.2404 22.2962 63.9384 21.2073V22.6088H66.5803C66.5576 22.4313 66.5803 21.6086 66.5803 20.6286V7H66.5824ZM60.9794 20.6064C59.1799 20.6064 57.9957 19.2271 57.9957 17.1582C57.9957 15.0892 59.2718 13.7745 61.0021 13.7745C62.7325 13.7745 63.9177 15.065 63.9177 17.134C63.9177 19.2029 62.7108 20.6044 60.9794 20.6044" fill="#8B4AFF"/>
<path d="M37.5269 11.5009C34.2242 11.5009 31.7877 13.9257 31.7877 17.2398C31.7877 20.554 34.2252 23.001 37.5269 23.001C40.8286 23.001 43.2899 20.5762 43.2899 17.2398C43.2899 13.9035 40.8523 11.5009 37.5269 11.5009ZM40.3795 18.3217C40.3692 18.852 40.012 19.3158 39.4926 19.4731L34.8405 20.9603C34.7827 20.9785 34.7208 20.9472 34.7022 20.8907C34.6991 20.8796 34.697 20.8686 34.697 20.8575V16.1771C34.7063 15.6468 35.0646 15.182 35.5839 15.0257L40.237 13.5406C40.2948 13.5224 40.3568 13.5537 40.3754 13.6101C40.3785 13.6212 40.3805 13.6323 40.3805 13.6434V18.3227L40.3795 18.3217Z" fill="#8B4AFF"/>
</g>
<path d="M10.8274 28.9091V34H10.0593V28.9091H10.8274ZM16.685 28.9091V34H15.9791L13.3914 30.2663H13.3441V34H12.576V28.9091H13.287L15.8772 32.6477H15.9244V28.9091H16.685ZM18.8805 28.9091L20.2974 33.0554H20.3545L21.7715 28.9091H22.6017L20.7697 34H19.8822L18.0502 28.9091H18.8805ZM28.1362 31.4545C28.1362 31.9981 28.0368 32.4654 27.8379 32.8565C27.639 33.246 27.3664 33.5459 27.0201 33.7564C26.6754 33.9652 26.2834 34.0696 25.8443 34.0696C25.4035 34.0696 25.0099 33.9652 24.6635 33.7564C24.3188 33.5459 24.047 33.2451 23.8482 32.854C23.6493 32.4629 23.5499 31.9964 23.5499 31.4545C23.5499 30.911 23.6493 30.4445 23.8482 30.055C24.047 29.6639 24.3188 29.364 24.6635 29.1552C25.0099 28.9447 25.4035 28.8395 25.8443 28.8395C26.2834 28.8395 26.6754 28.9447 27.0201 29.1552C27.3664 29.364 27.639 29.6639 27.8379 30.055C28.0368 30.4445 28.1362 30.911 28.1362 31.4545ZM27.3755 31.4545C27.3755 31.0402 27.3084 30.6914 27.1742 30.408C27.0416 30.123 26.8593 29.9076 26.6273 29.7617C26.397 29.6142 26.1359 29.5405 25.8443 29.5405C25.551 29.5405 25.2891 29.6142 25.0588 29.7617C24.8284 29.9076 24.6461 30.123 24.5119 30.408C24.3793 30.6914 24.313 31.0402 24.313 31.4545C24.313 31.8688 24.3793 32.2185 24.5119 32.5036C24.6461 32.7869 24.8284 33.0024 25.0588 33.1499C25.2891 33.2957 25.551 33.3686 25.8443 33.3686C26.1359 33.3686 26.397 33.2957 26.6273 33.1499C26.8593 33.0024 27.0416 32.7869 27.1742 32.5036C27.3084 32.2185 27.3755 31.8688 27.3755 31.4545ZM30.4919 28.9091V34H29.7238V28.9091H30.4919ZM36.4689 30.5646H35.6933C35.6635 30.3989 35.608 30.2531 35.5268 30.1271C35.4456 30.0012 35.3461 29.8943 35.2285 29.8065C35.1108 29.7186 34.9791 29.6523 34.8332 29.6076C34.6891 29.5629 34.5358 29.5405 34.3734 29.5405C34.08 29.5405 33.8174 29.6142 33.5854 29.7617C33.355 29.9092 33.1727 30.1255 33.0385 30.4105C32.9059 30.6955 32.8396 31.0436 32.8396 31.4545C32.8396 31.8688 32.9059 32.2185 33.0385 32.5036C33.1727 32.7886 33.3558 33.004 33.5879 33.1499C33.8199 33.2957 34.0809 33.3686 34.3709 33.3686C34.5316 33.3686 34.6841 33.3471 34.8283 33.304C34.9741 33.2592 35.1058 33.1938 35.2235 33.1076C35.3412 33.0214 35.4406 32.9162 35.5218 32.7919C35.6047 32.666 35.6618 32.5218 35.6933 32.3594L36.4689 32.3619C36.4275 32.6121 36.3471 32.8424 36.2278 33.0529C36.1101 33.2617 35.9585 33.4424 35.7729 33.5948C35.5889 33.7456 35.3785 33.8625 35.1415 33.9453C34.9045 34.0282 34.646 34.0696 34.3659 34.0696C33.9251 34.0696 33.5323 33.9652 33.1876 33.7564C32.8429 33.5459 32.5712 33.2451 32.3723 32.854C32.1751 32.4629 32.0765 31.9964 32.0765 31.4545C32.0765 30.911 32.1759 30.4445 32.3748 30.055C32.5737 29.6639 32.8454 29.364 33.1901 29.1552C33.5348 28.9447 33.9268 28.8395 34.3659 28.8395C34.636 28.8395 34.8879 28.8784 35.1216 28.9563C35.3569 29.0326 35.5682 29.1452 35.7555 29.2944C35.9427 29.4419 36.0977 29.6225 36.2203 29.8363C36.3429 30.0484 36.4258 30.2912 36.4689 30.5646ZM38.018 34V28.9091H41.2098V29.5703H38.7861V31.1214H41.0432V31.7802H38.7861V33.3388H41.2396V34H38.018ZM45.3483 34V28.9091H47.163C47.559 28.9091 47.8872 28.9812 48.1473 29.1254C48.4075 29.2695 48.6022 29.4667 48.7315 29.717C48.8608 29.9656 48.9254 30.2456 48.9254 30.5572C48.9254 30.8704 48.8599 31.1521 48.729 31.4023C48.5997 31.6509 48.4042 31.8481 48.1424 31.994C47.8822 32.1381 47.5549 32.2102 47.1605 32.2102H45.9126V31.5589H47.0909C47.3411 31.5589 47.5441 31.5159 47.6999 31.4297C47.8557 31.3419 47.97 31.2225 48.0429 31.0717C48.1158 30.9209 48.1523 30.7494 48.1523 30.5572C48.1523 30.3649 48.1158 30.1942 48.0429 30.0451C47.97 29.896 47.8548 29.7791 47.6974 29.6946C47.5416 29.6101 47.3361 29.5678 47.0809 29.5678H46.1164V34H45.3483ZM50.3459 34H49.5305L51.3626 28.9091H52.25L54.082 34H53.2667L51.8274 29.8338H51.7876L50.3459 34ZM50.4826 32.0064H53.1275V32.6527H50.4826V32.0064ZM54.5349 28.9091H55.4074L56.7373 31.2234H56.792L58.1219 28.9091H58.9944L57.1475 32.0014V34H56.3819V32.0014L54.5349 28.9091ZM60.3497 28.9091H61.2818L62.9026 32.8665H62.9622L64.583 28.9091H65.5151V34H64.7843V30.3161H64.7371L63.2357 33.9925H62.6291L61.1277 30.3136H61.0805V34H60.3497V28.9091ZM67.2619 34V28.9091H70.4536V29.5703H68.03V31.1214H70.2871V31.7802H68.03V33.3388H70.4835V34H67.2619ZM76.2187 28.9091V34H75.5127L72.925 30.2663H72.8778V34H72.1097V28.9091H72.8206L75.4108 32.6477H75.458V28.9091H76.2187ZM77.7181 29.5703V28.9091H81.6581V29.5703H80.0696V34H79.304V29.5703H77.7181Z" fill="#55687D"/>
<defs>
<clipPath id="clip0_2336_4099">
<rect width="64" height="16" fill="white" transform="translate(14 7)"/>
</clipPath>
</defs>
</svg>
