<svg width="92" height="42" viewBox="0 0 92 42" fill="none" xmlns="http://www.w3.org/2000/svg">
<rect x="0.5" y="0.5" width="91" height="41" rx="6.5" fill="white"/>
<rect x="0.5" y="0.5" width="91" height="41" rx="6.5" stroke="#C9D1D7"/>
<g clip-path="url(#clip0_2336_4101)">
<path d="M47.0242 22.6088H44.3822V11.7761H46.956V13.2219C47.6405 12.0967 48.897 11.4242 50.2361 11.4645C52.9462 11.4645 54.245 13.3782 54.245 15.7577V22.6098H51.603V16.2033C51.603 14.8694 50.9877 13.8007 49.3255 13.8007C47.8212 13.8007 47.0252 14.935 47.0252 16.3586V22.6088H47.0242Z" fill="#8B4AFF"/>
<path d="M72.3516 22.9203C69.7096 22.9203 68.1599 21.0067 68.1599 18.605V11.7751H70.8019V18.1372C70.8019 19.4711 71.4399 20.6064 73.034 20.6064C74.628 20.6064 75.358 19.6062 75.358 18.1815V11.7751H77.9999V20.6276C77.9999 21.5168 77.9545 22.2075 77.9999 22.6078H75.4942C75.4715 22.2075 75.4715 21.8062 75.4942 21.4069C74.9481 22.386 73.6493 22.9193 72.3505 22.9193" fill="#8B4AFF"/>
<path d="M26.7463 11.4636C25.272 11.3829 23.8782 12.124 23.1473 13.3772C22.5351 12.1421 21.2239 11.3879 19.8218 11.4636C18.5014 11.4293 17.2583 12.0705 16.5418 13.1544V11.7761H14L14.0134 22.6088H16.6347V16.1802C16.6347 14.8009 17.5237 13.7775 18.935 13.7775C20.4392 13.7775 21.0762 14.7565 21.0762 16.0017V22.6088H23.6707V16.1802C23.5861 14.939 24.5462 13.8662 25.8171 13.7825C25.8688 13.7795 25.9193 13.7775 25.971 13.7775C27.4515 13.7775 28.1122 14.7333 28.1122 16.0017V22.6088H30.6633V15.5772C30.6633 12.7077 28.7503 11.4625 26.7453 11.4625" fill="#8B4AFF"/>
<path d="M66.5825 7L63.894 7.85803V13.0435C63.5523 12.3538 62.5736 11.4867 60.6367 11.4867C57.5136 11.4867 55.3528 14.0447 55.3528 17.1572C55.3528 20.4269 57.494 22.876 60.6822 22.876C61.9964 22.9335 63.2405 22.2962 63.9384 21.2073V22.6088H66.5804C66.5577 22.4313 66.5804 21.6086 66.5804 20.6286V7H66.5825ZM60.9795 20.6064C59.18 20.6064 57.9958 19.2271 57.9958 17.1582C57.9958 15.0892 59.2719 13.7745 61.0022 13.7745C62.7326 13.7745 63.9178 15.065 63.9178 17.134C63.9178 19.2029 62.7109 20.6044 60.9795 20.6044" fill="#8B4AFF"/>
<path d="M37.5268 11.5009C34.2241 11.5009 31.7876 13.9257 31.7876 17.2398C31.7876 20.554 34.2252 23.001 37.5268 23.001C40.8285 23.001 43.2898 20.5762 43.2898 17.2398C43.2898 13.9035 40.8523 11.5009 37.5268 11.5009ZM40.3794 18.3217C40.3691 18.852 40.0119 19.3158 39.4926 19.4731L34.8405 20.9603C34.7827 20.9785 34.7207 20.9472 34.7021 20.8907C34.699 20.8796 34.697 20.8686 34.697 20.8575V16.1771C34.7063 15.6468 35.0645 15.182 35.5838 15.0257L40.237 13.5406C40.2948 13.5224 40.3567 13.5537 40.3753 13.6101C40.3784 13.6212 40.3805 13.6323 40.3805 13.6434V18.3227L40.3794 18.3217Z" fill="#8B4AFF"/>
</g>
<path d="M10.3359 30.2464C10.3094 30.0111 10.2 29.8288 10.0078 29.6996C9.81558 29.5687 9.57363 29.5032 9.28196 29.5032C9.07315 29.5032 8.89252 29.5363 8.74006 29.6026C8.58759 29.6673 8.46911 29.7567 8.38459 29.8711C8.30173 29.9838 8.2603 30.1122 8.2603 30.2564C8.2603 30.3774 8.28847 30.4818 8.34482 30.5696C8.40282 30.6574 8.47822 30.7312 8.57102 30.7908C8.66548 30.8488 8.76657 30.8977 8.87429 30.9375C8.98201 30.9756 9.08558 31.0071 9.18501 31.032L9.68217 31.1612C9.84458 31.201 10.0111 31.2549 10.1818 31.3228C10.3525 31.3907 10.5108 31.4802 10.6566 31.5913C10.8024 31.7023 10.9201 31.8398 11.0096 32.0039C11.1007 32.168 11.1463 32.3643 11.1463 32.593C11.1463 32.8814 11.0717 33.1374 10.9226 33.3612C10.7751 33.5849 10.5605 33.7614 10.2788 33.8906C9.9987 34.0199 9.6598 34.0845 9.26207 34.0845C8.88092 34.0845 8.55114 34.024 8.27273 33.9031C7.99432 33.7821 7.7764 33.6106 7.61896 33.3885C7.46153 33.1648 7.37453 32.8996 7.35795 32.593H8.12855C8.14347 32.777 8.20313 32.9303 8.30753 33.0529C8.41359 33.1739 8.54865 33.2642 8.71271 33.3239C8.87843 33.3819 9.0599 33.4109 9.2571 33.4109C9.4742 33.4109 9.66726 33.3769 9.83629 33.3089C10.007 33.2393 10.1412 33.1432 10.239 33.0206C10.3368 32.8963 10.3857 32.7513 10.3857 32.5856C10.3857 32.4348 10.3426 32.3113 10.2564 32.2152C10.1719 32.1191 10.0567 32.0395 9.91087 31.9766C9.76669 31.9136 9.60346 31.8581 9.42116 31.81L8.8196 31.646C8.41193 31.5349 8.08878 31.3717 7.85014 31.1562C7.61316 30.9408 7.49467 30.6558 7.49467 30.3011C7.49467 30.0078 7.57422 29.7518 7.73331 29.533C7.8924 29.3143 8.10784 29.1444 8.37962 29.0234C8.6514 28.9008 8.95798 28.8395 9.29936 28.8395C9.64406 28.8395 9.94815 28.9 10.2116 29.021C10.4768 29.1419 10.6856 29.3085 10.8381 29.5206C10.9905 29.7311 11.0701 29.973 11.0767 30.2464H10.3359ZM12.6942 34V28.9091H15.8859V29.5703H13.4623V31.1214H15.7194V31.7802H13.4623V33.3388H15.9158V34H12.6942ZM17.542 34V28.9091H19.3566C19.7527 28.9091 20.0808 28.9812 20.341 29.1254C20.6011 29.2695 20.7959 29.4667 20.9251 29.717C21.0544 29.9656 21.119 30.2456 21.119 30.5572C21.119 30.8704 21.0536 31.1521 20.9226 31.4023C20.7934 31.6509 20.5978 31.8481 20.336 31.994C20.0758 32.1381 19.7485 32.2102 19.3541 32.2102H18.1062V31.5589H19.2845C19.5347 31.5589 19.7377 31.5159 19.8935 31.4297C20.0493 31.3419 20.1636 31.2225 20.2366 31.0717C20.3095 30.9209 20.3459 30.7494 20.3459 30.5572C20.3459 30.3649 20.3095 30.1942 20.2366 30.0451C20.1636 29.896 20.0485 29.7791 19.891 29.6946C19.7353 29.6101 19.5298 29.5678 19.2746 29.5678H18.3101V34H17.542ZM22.5395 34H21.7242L23.5562 28.9091H24.4436L26.2757 34H25.4603L24.021 29.8338H23.9813L22.5395 34ZM22.6762 32.0064H25.3211V32.6527H22.6762V32.0064ZM31.7714 34H30.1234V28.9091H31.8237C32.3225 28.9091 32.7509 29.011 33.1088 29.2148C33.4668 29.417 33.741 29.7079 33.9316 30.0874C34.1238 30.4652 34.22 30.9184 34.22 31.4471C34.22 31.9774 34.123 32.4331 33.9291 32.8143C33.7369 33.1954 33.4585 33.4888 33.0939 33.6942C32.7293 33.8981 32.2885 34 31.7714 34ZM30.8915 33.3288H31.7292C32.117 33.3288 32.4393 33.2559 32.6962 33.1101C32.953 32.9626 33.1453 32.7496 33.2729 32.4712C33.4005 32.1912 33.4643 31.8498 33.4643 31.4471C33.4643 31.0477 33.4005 30.7088 33.2729 30.4304C33.1469 30.152 32.9588 29.9407 32.7086 29.7965C32.4584 29.6523 32.1476 29.5803 31.7764 29.5803H30.8915V33.3288ZM36.5732 28.9091V34H35.8051V28.9091H36.5732ZM38.3218 34V28.9091H40.1365C40.5309 28.9091 40.8582 28.977 41.1184 29.1129C41.3802 29.2488 41.5757 29.4369 41.705 29.6772C41.8343 29.9158 41.8989 30.1918 41.8989 30.505C41.8989 30.8165 41.8334 31.0908 41.7025 31.3278C41.5733 31.5631 41.3777 31.7462 41.1159 31.8771C40.8557 32.008 40.5284 32.0735 40.134 32.0735H38.7593V31.4123H40.0644C40.313 31.4123 40.5151 31.3767 40.6709 31.3054C40.8284 31.2341 40.9435 31.1306 41.0164 30.9947C41.0894 30.8588 41.1258 30.6955 41.1258 30.505C41.1258 30.3127 41.0885 30.1462 41.014 30.0053C40.941 29.8645 40.8259 29.7567 40.6684 29.6822C40.5127 29.6059 40.308 29.5678 40.0544 29.5678H39.09V34H38.3218ZM40.835 31.7031L42.0928 34H41.2178L39.9848 31.7031H40.835ZM43.4636 34V28.9091H46.6553V29.5703H44.2317V31.1214H46.4888V31.7802H44.2317V33.3388H46.6852V34H43.4636ZM52.5397 30.5646H51.7641C51.7343 30.3989 51.6788 30.2531 51.5976 30.1271C51.5164 30.0012 51.4169 29.8943 51.2993 29.8065C51.1816 29.7186 51.0499 29.6523 50.904 29.6076C50.7598 29.5629 50.6066 29.5405 50.4441 29.5405C50.1508 29.5405 49.8882 29.6142 49.6561 29.7617C49.4258 29.9092 49.2435 30.1255 49.1093 30.4105C48.9767 30.6955 48.9104 31.0436 48.9104 31.4545C48.9104 31.8688 48.9767 32.2185 49.1093 32.5036C49.2435 32.7886 49.4266 33.004 49.6586 33.1499C49.8906 33.2957 50.1517 33.3686 50.4417 33.3686C50.6024 33.3686 50.7549 33.3471 50.899 33.304C51.0449 33.2592 51.1766 33.1938 51.2943 33.1076C51.4119 33.0214 51.5114 32.9162 51.5926 32.7919C51.6754 32.666 51.7326 32.5218 51.7641 32.3594L52.5397 32.3619C52.4982 32.6121 52.4179 32.8424 52.2985 33.0529C52.1809 33.2617 52.0293 33.4424 51.8436 33.5948C51.6597 33.7456 51.4492 33.8625 51.2123 33.9453C50.9753 34.0282 50.7168 34.0696 50.4367 34.0696C49.9959 34.0696 49.6031 33.9652 49.2584 33.7564C48.9137 33.5459 48.6419 33.2451 48.4431 32.854C48.2459 32.4629 48.1473 31.9964 48.1473 31.4545C48.1473 30.911 48.2467 30.4445 48.4456 30.055C48.6444 29.6639 48.9162 29.364 49.2609 29.1552C49.6056 28.9447 49.9975 28.8395 50.4367 28.8395C50.7068 28.8395 50.9587 28.8784 51.1924 28.9563C51.4277 29.0326 51.639 29.1452 51.8262 29.2944C52.0135 29.4419 52.1685 29.6225 52.2911 29.8363C52.4137 30.0484 52.4966 30.2912 52.5397 30.5646ZM53.8377 29.5703V28.9091H57.7777V29.5703H56.1893V34H55.4237V29.5703H53.8377ZM63.409 34H61.7609V28.9091H63.4612C63.96 28.9091 64.3884 29.011 64.7463 29.2148C65.1043 29.417 65.3786 29.7079 65.5691 30.0874C65.7614 30.4652 65.8575 30.9184 65.8575 31.4471C65.8575 31.9774 65.7606 32.4331 65.5667 32.8143C65.3744 33.1954 65.096 33.4888 64.7314 33.6942C64.3668 33.8981 63.926 34 63.409 34ZM62.529 33.3288H63.3667C63.7545 33.3288 64.0768 33.2559 64.3337 33.1101C64.5906 32.9626 64.7828 32.7496 64.9104 32.4712C65.038 32.1912 65.1018 31.8498 65.1018 31.4471C65.1018 31.0477 65.038 30.7088 64.9104 30.4304C64.7845 30.152 64.5964 29.9407 64.3461 29.7965C64.0959 29.6523 63.7852 29.5803 63.414 29.5803H62.529V33.3288ZM67.4427 34V28.9091H70.6344V29.5703H68.2108V31.1214H70.4679V31.7802H68.2108V33.3388H70.6643V34H67.4427ZM72.2904 34V28.9091H74.1548C74.5161 28.9091 74.8152 28.9687 75.0522 29.0881C75.2891 29.2057 75.4665 29.3656 75.5841 29.5678C75.7018 29.7683 75.7606 29.9946 75.7606 30.2464C75.7606 30.4586 75.7217 30.6375 75.6438 30.7834C75.5659 30.9276 75.4615 31.0436 75.3306 31.1314C75.2013 31.2176 75.0588 31.2805 74.903 31.3203V31.37C75.072 31.3783 75.2369 31.433 75.3977 31.5341C75.5601 31.6335 75.6943 31.7752 75.8004 31.9592C75.9064 32.1431 75.9595 32.3668 75.9595 32.6303C75.9595 32.8905 75.8982 33.1242 75.7755 33.3313C75.6545 33.5368 75.4673 33.7 75.2137 33.821C74.9602 33.9403 74.6362 34 74.2418 34H72.2904ZM73.0585 33.3413H74.1672C74.5351 33.3413 74.7986 33.27 74.9577 33.1275C75.1168 32.985 75.1963 32.8068 75.1963 32.593C75.1963 32.4323 75.1557 32.2848 75.0745 32.1506C74.9933 32.0163 74.8773 31.9094 74.7265 31.8299C74.5774 31.7504 74.4 31.7106 74.1946 31.7106H73.0585V33.3413ZM73.0585 31.1115H74.0877C74.26 31.1115 74.415 31.0784 74.5525 31.0121C74.6917 30.9458 74.8019 30.853 74.8831 30.7337C74.966 30.6127 75.0074 30.4702 75.0074 30.3061C75.0074 30.0956 74.9337 29.9192 74.7862 29.7766C74.6387 29.6341 74.4125 29.5629 74.1076 29.5629H73.0585V31.1115ZM78.2686 28.9091V34H77.5005V28.9091H78.2686ZM79.7662 29.5703V28.9091H83.7062V29.5703H82.1177V34H81.3521V29.5703H79.7662Z" fill="#55687D"/>
<defs>
<clipPath id="clip0_2336_4101">
<rect width="64" height="16" fill="white" transform="translate(14 7)"/>
</clipPath>
</defs>
</svg>
