<svg width="92" height="42" viewBox="0 0 92 42" fill="none" xmlns="http://www.w3.org/2000/svg">
<rect x="0.5" y="0.5" width="91" height="41" rx="6.5" fill="#692CCF"/>
<rect x="0.5" y="0.5" width="91" height="41" rx="6.5" stroke="#C9D1D7"/>
<g clip-path="url(#clip0_2336_4184)">
<path d="M47.0242 22.6088H44.3822V11.7761H46.956V13.2219C47.6405 12.0967 48.897 11.4242 50.2361 11.4645C52.9462 11.4645 54.245 13.3782 54.245 15.7577V22.6098H51.603V16.2033C51.603 14.8694 50.9877 13.8007 49.3255 13.8007C47.8212 13.8007 47.0252 14.935 47.0252 16.3586V22.6088H47.0242Z" fill="white"/>
<path d="M72.3516 22.9203C69.7096 22.9203 68.1599 21.0067 68.1599 18.605V11.7751H70.8019V18.1372C70.8019 19.4711 71.4399 20.6064 73.034 20.6064C74.628 20.6064 75.358 19.6062 75.358 18.1815V11.7751H77.9999V20.6276C77.9999 21.5168 77.9545 22.2075 77.9999 22.6078H75.4942C75.4715 22.2075 75.4715 21.8062 75.4942 21.4069C74.9481 22.386 73.6493 22.9193 72.3505 22.9193" fill="white"/>
<path d="M26.7463 11.4636C25.272 11.3829 23.8782 12.124 23.1473 13.3772C22.5351 12.1421 21.2239 11.3879 19.8218 11.4636C18.5014 11.4293 17.2583 12.0705 16.5418 13.1544V11.7761H14L14.0134 22.6088H16.6347V16.1802C16.6347 14.8009 17.5237 13.7775 18.935 13.7775C20.4392 13.7775 21.0762 14.7565 21.0762 16.0017V22.6088H23.6707V16.1802C23.5861 14.939 24.5462 13.8662 25.8171 13.7825C25.8688 13.7795 25.9193 13.7775 25.971 13.7775C27.4515 13.7775 28.1122 14.7333 28.1122 16.0017V22.6088H30.6633V15.5772C30.6633 12.7077 28.7503 11.4625 26.7453 11.4625" fill="white"/>
<path d="M66.5825 7L63.894 7.85803V13.0435C63.5523 12.3538 62.5736 11.4867 60.6367 11.4867C57.5136 11.4867 55.3528 14.0447 55.3528 17.1572C55.3528 20.4269 57.494 22.876 60.6822 22.876C61.9964 22.9335 63.2405 22.2962 63.9384 21.2073V22.6088H66.5804C66.5577 22.4313 66.5804 21.6086 66.5804 20.6286V7H66.5825ZM60.9795 20.6064C59.18 20.6064 57.9958 19.2271 57.9958 17.1582C57.9958 15.0892 59.2719 13.7745 61.0022 13.7745C62.7326 13.7745 63.9178 15.065 63.9178 17.134C63.9178 19.2029 62.7109 20.6044 60.9795 20.6044" fill="white"/>
<path d="M37.5268 11.5009C34.2241 11.5009 31.7876 13.9257 31.7876 17.2398C31.7876 20.554 34.2252 23.001 37.5268 23.001C40.8285 23.001 43.2898 20.5762 43.2898 17.2398C43.2898 13.9035 40.8523 11.5009 37.5268 11.5009ZM40.3794 18.3217C40.3691 18.852 40.0119 19.3158 39.4926 19.4731L34.8405 20.9603C34.7827 20.9785 34.7207 20.9472 34.7021 20.8907C34.699 20.8796 34.697 20.8686 34.697 20.8575V16.1771C34.7063 15.6468 35.0645 15.182 35.5838 15.0257L40.237 13.5406C40.2948 13.5224 40.3567 13.5537 40.3753 13.6101C40.3784 13.6212 40.3805 13.6323 40.3805 13.6434V18.3227L40.3794 18.3217Z" fill="white"/>
</g>
<path d="M21.3274 28.9091V34H20.5593V28.9091H21.3274ZM27.185 28.9091V34H26.4791L23.8914 30.2663H23.8441V34H23.076V28.9091H23.787L26.3772 32.6477H26.4244V28.9091H27.185ZM31.7121 30.2464C31.6856 30.0111 31.5763 29.8288 31.384 29.6996C31.1918 29.5687 30.9498 29.5032 30.6582 29.5032C30.4494 29.5032 30.2687 29.5363 30.1163 29.6026C29.9638 29.6673 29.8453 29.7567 29.7608 29.8711C29.6779 29.9838 29.6365 30.1122 29.6365 30.2564C29.6365 30.3774 29.6647 30.4818 29.721 30.5696C29.779 30.6574 29.8544 30.7312 29.9472 30.7908C30.0417 30.8488 30.1428 30.8977 30.2505 30.9375C30.3582 30.9756 30.4618 31.0071 30.5612 31.032L31.0584 31.1612C31.2208 31.201 31.3873 31.2549 31.558 31.3228C31.7287 31.3907 31.887 31.4802 32.0328 31.5913C32.1786 31.7023 32.2963 31.8398 32.3858 32.0039C32.4769 32.168 32.5225 32.3643 32.5225 32.593C32.5225 32.8814 32.4479 33.1374 32.2988 33.3612C32.1513 33.5849 31.9367 33.7614 31.655 33.8906C31.3749 34.0199 31.036 34.0845 30.6383 34.0845C30.2571 34.0845 29.9273 34.024 29.6489 33.9031C29.3705 33.7821 29.1526 33.6106 28.9952 33.3885C28.8377 33.1648 28.7507 32.8996 28.7342 32.593H29.5048C29.5197 32.777 29.5793 32.9303 29.6837 33.0529C29.7898 33.1739 29.9249 33.2642 30.0889 33.3239C30.2546 33.3819 30.4361 33.4109 30.6333 33.4109C30.8504 33.4109 31.0435 33.3769 31.2125 33.3089C31.3832 33.2393 31.5174 33.1432 31.6152 33.0206C31.713 32.8963 31.7619 32.7513 31.7619 32.5856C31.7619 32.4348 31.7188 32.3113 31.6326 32.2152C31.5481 32.1191 31.4329 32.0395 31.2871 31.9766C31.1429 31.9136 30.9797 31.8581 30.7974 31.81L30.1958 31.646C29.7881 31.5349 29.465 31.3717 29.2264 31.1562C28.9894 30.9408 28.8709 30.6558 28.8709 30.3011C28.8709 30.0078 28.9504 29.7518 29.1095 29.533C29.2686 29.3143 29.484 29.1444 29.7558 29.0234C30.0276 28.9008 30.3342 28.8395 30.6756 28.8395C31.0203 28.8395 31.3244 28.9 31.5879 29.021C31.853 29.1419 32.0618 29.3085 32.2143 29.5206C32.3667 29.7311 32.4463 29.973 32.4529 30.2464H31.7121ZM33.8193 29.5703V28.9091H37.7593V29.5703H36.1709V34H35.4053V29.5703H33.8193ZM39.0884 34H38.2731L40.1051 28.9091H40.9926L42.8246 34H42.0093L40.57 29.8338H40.5302L39.0884 34ZM39.2252 32.0064H41.8701V32.6527H39.2252V32.0064ZM48.2988 28.9091V34H47.5928L45.0051 30.2663H44.9579V34H44.1898V28.9091H44.9007L47.4909 32.6477H47.5381V28.9091H48.2988ZM49.7982 29.5703V28.9091H53.7382V29.5703H52.1498V34H51.3841V29.5703H49.7982ZM57.7214 34V28.9091H59.536C59.9321 28.9091 60.2602 28.9812 60.5204 29.1254C60.7806 29.2695 60.9753 29.4667 61.1045 29.717C61.2338 29.9656 61.2984 30.2456 61.2984 30.5572C61.2984 30.8704 61.233 31.1521 61.1021 31.4023C60.9728 31.6509 60.7772 31.8481 60.5154 31.994C60.2552 32.1381 59.9279 32.2102 59.5335 32.2102H58.2857V31.5589H59.4639C59.7142 31.5589 59.9172 31.5159 60.0729 31.4297C60.2287 31.3419 60.3431 31.2225 60.416 31.0717C60.4889 30.9209 60.5254 30.7494 60.5254 30.5572C60.5254 30.3649 60.4889 30.1942 60.416 30.0451C60.3431 29.896 60.2279 29.7791 60.0705 29.6946C59.9147 29.6101 59.7092 29.5678 59.454 29.5678H58.4895V34H57.7214ZM62.7189 34H61.9036L63.7356 28.9091H64.623L66.4551 34H65.6397L64.2004 29.8338H64.1607L62.7189 34ZM62.8556 32.0064H65.5005V32.6527H62.8556V32.0064ZM66.908 28.9091H67.7805L69.1104 31.2234H69.1651L70.495 28.9091H71.3675L69.5205 32.0014V34H68.7549V32.0014L66.908 28.9091Z" fill="white"/>
<defs>
<clipPath id="clip0_2336_4184">
<rect width="64" height="16" fill="white" transform="translate(14 7)"/>
</clipPath>
</defs>
</svg>
